<?xml version="1.0" encoding="utf-8"?>
<!-- Generator: Adobe Illustrator 19.2.1, SVG Export Plug-In . SVG Version: 6.00 Build 0)  -->
<svg version="1.1" id="layer" xmlns="http://www.w3.org/2000/svg" xmlns:xlink="http://www.w3.org/1999/xlink" x="0px" y="0px"
	 viewBox="0 0 652 652" style="enable-background:new 0 0 652 652;" xml:space="preserve">
<style type="text/css">
	.st0{fill-rule:evenodd;clip-rule:evenodd;fill:#006CB2;}
</style>
<g>
	<path class="st0" d="M434.5,319.9c0.8-0.1,1.4-0.2,2.2-0.4c20.1-5.1,35.1-24.5,35.1-46l-0.5-147.2h54.5v148
		c0.1,51.4-39,94.2-89.1,99.5l-2.2,0.2V319.9z M418.3,373.9l-2.8-0.2c-50.1-5.2-88.8-47.5-88.8-99V126.2h54.1l-0.1,147.2
		c0,21.5,15,40.9,35.1,46c0.9,0.2,1.6,0.3,2.5,0.5L418.3,373.9z M286.2,436.8H269v88h17.2V436.8z M403,524.8v-15.3h-40.8v-21.4h34.7
		v-15.3h-34.7v-20.6H403v-15.3h-58v88H403z M526,524.8v-88h-17.2v53.9L474,436.8h-15.3v88h17.2v-54l34.9,54H526z M227.5,437.8h-17.9
		l-13.7,55.5l-16.1-55.5H167l-16.1,55.5l-13.6-55.5h-17.9l23.5,88h14.3l16.2-53.4l16.2,53.4h14.3L227.5,437.8z M115.3,126.2h186.7
		v53.4H115.3V126.2z M182.9,195.1h53.4v177.4h-53.4V195.1z M526.9,76c27.6,0,49.9,22.4,49.9,50l0.1,400c0,27.6-22.5,50-50.1,50
		H126.9c-27.6,0-50-22.4-50-50l0-400c0-27.6,22.3-50,49.9-50H526.9z"/>
</g>
</svg>
